<svg xmlns="http://www.w3.org/2000/svg" id="Capa_1" viewBox="0 0 384 384"><style>.a{fill:#012E52;}</style><path d="M192 64c70.7 0 128 57.3 128 128s-57.3 128-128 128S64 262.7 64 192 121.3 64 192 64zM232 192c0-22.1-17.9-40-40-40s-40 17.9-40 40 17.9 40 40 40S232 214.1 232 192z" fill="#4DD0E1"/><circle cx="192" cy="192" r="40" fill="#FF7043"/><path d="M192 136c-30.9 0-56 25.1-56 56s25.1 56 56 56 56-25.1 56-56S222.9 136 192 136zM192 216c-13.2 0-24-10.8-24-24s10.8-24 24-24 24 10.8 24 24S205.2 216 192 216z" class="a"/><path d="M368 176h-32.9C327.6 109.4 274.6 56.4 208 48.9V16c0-8.8-7.2-16-16-16s-16 7.2-16 16v32.9C109.4 56.4 56.4 109.4 48.9 176H16c-8.8 0-16 7.2-16 16s7.2 16 16 16h32.9C56.4 274.6 109.4 327.6 176 335.1V368c0 8.8 7.2 16 16 16s16-7.2 16-16v-32.9c66.6-7.4 119.6-60.4 127.1-127.1H368c8.8 0 16-7.2 16-16S376.8 176 368 176zM192 304c-61.8 0-112-50.2-112-112S130.2 80 192 80s112 50.2 112 112S253.8 304 192 304z" class="a"/></svg>